<?xml version="1.0" encoding="UTF-8" standalone="no"?>
<!-- Uploaded to: SVG Repo, www.svgrepo.com, Generator: SVG Repo Mixer Tools -->

<svg
   fill="#000000"
   version="1.1"
   id="Capa_1"
   width="800"
   height="800"
   viewBox="0 0 27.17 27.17"
   xml:space="preserve"
   xmlns:xlink="http://www.w3.org/1999/xlink"
   xmlns="http://www.w3.org/2000/svg"
   xmlns:svg="http://www.w3.org/2000/svg"><defs
   id="defs1"><linearGradient
     id="linearGradient3"><stop
       style="stop-color:#ff2afb;stop-opacity:1;"
       offset="0"
       id="stop3" /><stop
       style="stop-color:#001bf2;stop-opacity:1;"
       offset="1"
       id="stop4" /></linearGradient><linearGradient
     xlink:href="#linearGradient3"
     id="linearGradient4"
     x1="1.609"
     y1="13.584564"
     x2="25.562"
     y2="13.584564"
     gradientUnits="userSpaceOnUse" /><linearGradient
     xlink:href="#linearGradient3"
     id="linearGradient5"
     gradientUnits="userSpaceOnUse"
     x1="1.609"
     y1="13.584564"
     x2="25.562"
     y2="13.584564" /><linearGradient
     xlink:href="#linearGradient3"
     id="linearGradient12"
     x1="9.7310238"
     y1="1.6861775"
     x2="10.271186"
     y2="1.6861775"
     gradientUnits="userSpaceOnUse" /></defs>
<g
   id="g1"
   style="fill:url(#linearGradient4)"
   transform="matrix(0.83642353,0,0,0.7903455,2.3045821,4.5108081)">
	<path
   d="m 1.609,0.008 c 0.013,0.129 0.023,0.248 0.033,0.367 0.103,1.153 0.203,2.307 0.307,3.459 0.132,1.465 0.265,2.933 0.395,4.397 0.11,1.232 0.219,2.467 0.328,3.7 0.124,1.389 0.249,2.777 0.373,4.167 0.109,1.231 0.218,2.467 0.328,3.7 0.134,1.502 0.27,3.002 0.398,4.504 0.008,0.097 0.039,0.138 0.135,0.164 3.177,0.896 6.352,1.793 9.525,2.687 0.08,0.022 0.176,0.021 0.256,0 3.187,-0.894 6.373,-1.789 9.56,-2.682 0.109,-0.031 0.143,-0.078 0.15,-0.185 0.068,-0.837 0.146,-1.673 0.219,-2.509 0.082,-0.922 0.166,-1.846 0.248,-2.77 0.074,-0.826 0.146,-1.65 0.221,-2.477 0.084,-0.924 0.166,-1.848 0.248,-2.771 0.072,-0.825 0.146,-1.649 0.221,-2.476 0.082,-0.92 0.164,-1.84 0.246,-2.76 0.074,-0.828 0.146,-1.656 0.223,-2.486 0.082,-0.92 0.164,-1.84 0.246,-2.76 C 25.343,2.439 25.417,1.599 25.496,0.76 25.517,0.51 25.538,0.258 25.562,0 17.571,0.008 9.6,0.008 1.609,0.008 Z m 19.222,7.957 c -3.82,0 -7.638,0 -11.47,0 0.09,1.033 0.179,2.056 0.267,3.082 3.649,0 7.287,0 10.938,0 -0.027,0.217 -0.061,0.422 -0.08,0.629 -0.051,0.521 -0.1,1.043 -0.146,1.562 -0.084,0.943 -0.166,1.892 -0.248,2.835 -0.072,0.848 -0.145,1.691 -0.221,2.539 -0.047,0.535 -0.1,1.07 -0.145,1.604 -0.008,0.084 -0.062,0.086 -0.111,0.101 -1.293,0.356 -2.584,0.713 -3.877,1.067 -0.709,0.197 -1.417,0.396 -2.127,0.591 -0.032,0.01 -0.076,0.004 -0.11,-0.007 C 11.495,21.417 9.49,20.864 7.486,20.315 7.394,20.292 7.392,20.235 7.386,20.169 7.335,19.525 7.284,18.886 7.236,18.242 7.169,17.378 7.101,16.513 7.033,15.648 7.031,15.626 7.031,15.599 7.029,15.568 c 0.99,0 1.978,0 2.971,0 0.025,0.281 0.052,0.562 0.076,0.838 0.044,0.49 0.088,0.979 0.13,1.472 0.004,0.056 0.021,0.078 0.075,0.094 1.076,0.287 2.15,0.578 3.228,0.867 0.038,0.011 0.084,0.006 0.123,-0.004 1.062,-0.285 2.123,-0.574 3.187,-0.856 0.064,-0.019 0.092,-0.048 0.098,-0.113 0.117,-1.254 0.236,-2.51 0.357,-3.763 0,-0.004 -0.002,-0.009 -0.004,-0.023 -3.463,0 -6.928,0 -10.401,0 C 6.596,11.049 6.326,8.029 6.055,5 11.08,5 16.083,5 21.112,5 21.021,5.988 20.925,6.971 20.831,7.965 Z"
   id="path1"
   style="fill:url(#linearGradient5)" />
</g>
<text
   xml:space="preserve"
   style="font-size:0.412627px;text-align:start;writing-mode:lr-tb;direction:ltr;text-anchor:start;white-space:pre;inline-size:2.87955;fill:url(#linearGradient12);stroke-width:0.0339625"
   x="9.7130547"
   y="1.843834"
   id="text5"
   transform="matrix(9.9466394,0,0,8.3568641,-86.124474,-11.706419)"><tspan
     x="9.7130547"
     y="1.843834"
     id="tspan2"><tspan
       style="font-weight:bold;font-stretch:condensed;font-family:'Agency FB';-inkscape-font-specification:'Agency FB Bold Condensed'"
       id="tspan1">SGD</tspan></tspan></text></svg>
